<svg width="98" height="28" viewBox="0 0 98 28" fill="none" xmlns="http://www.w3.org/2000/svg">
<path d="M2.93897e-05 10.9485C5.87794e-05 10.5236 0.201514 9.46481 0.347417 8.72812C0.568025 7.5863 1.00022 6.4944 1.62233 5.50721C3.14388 3.10865 5.39495 1.87168 8.22269 1.62497C9.84136 1.42849 11.4841 1.59721 13.0271 2.11839C13.6756 2.35468 14.2854 2.68372 14.8369 3.09495C15.2027 3.35251 15.453 3.73987 15.5352 4.17564C15.6175 4.61141 15.5254 5.06167 15.2781 5.43182C15.1564 5.66611 14.9597 5.85422 14.7185 5.96697C14.4773 6.07973 14.2051 6.11083 13.9442 6.05545C13.4153 5.95543 12.8941 5.81918 12.3844 5.64769C11.2387 5.25004 10.0182 5.10614 8.80977 5.22623C8.02998 5.30723 7.28953 5.60496 6.67456 6.08477C6.05959 6.56458 5.59537 7.20675 5.3359 7.93659C4.37884 10.1808 4.33406 12.7022 5.21084 14.9781C6.19047 17.5753 8.68471 18.6924 11.3492 17.7946C11.9779 17.5856 12.565 17.267 13.173 17.0031C13.4842 16.8554 13.8031 16.7239 14.1283 16.6091C14.3871 16.5033 14.6718 16.4751 14.9468 16.5282C15.2218 16.5812 15.4748 16.713 15.6741 16.9072C15.8785 17.1149 16.0194 17.3751 16.0808 17.6581C16.1422 17.941 16.1217 18.2354 16.0215 18.5074C15.8213 19.1398 15.4146 19.6892 14.8647 20.0698C13.8096 20.8592 12.5647 21.3645 11.2519 21.5364C9.41348 21.8593 7.52427 21.7584 5.73192 21.2417C2.91114 20.3645 1.27842 18.3771 0.54543 15.6359C0.350221 14.7577 0.200646 13.8703 0.0972974 12.977C0.0472201 12.5441 2.93897e-05 12.0587 2.93897e-05 12.0587C2.93897e-05 12.0587 0 11.3734 2.93897e-05 10.9485Z" fill="#4D4D4D"/>
<path d="M37.6754 27.8773C37.3289 27.8773 36.8361 27.7201 36.4248 27.6066C36.0446 27.4825 35.6852 27.3035 35.3583 27.0755C35.1219 26.9074 34.9406 26.6748 34.8369 26.4062C34.7332 26.1376 34.7115 25.845 34.7747 25.5644C34.7832 25.385 34.8334 25.2099 34.9214 25.0527C35.0094 24.8955 35.1329 24.7603 35.2823 24.6577C35.4317 24.555 35.6031 24.4876 35.7831 24.4606C35.9631 24.4337 36.147 24.4479 36.3205 24.5022C36.8243 24.605 37.3175 24.7386 37.8247 24.814C38.175 24.8875 38.5395 24.8575 38.8725 24.7276C39.2056 24.5978 39.4924 24.374 39.6971 24.0841C40.0732 23.5144 40.4009 22.915 40.6768 22.2921C40.7393 22.1619 40.6386 21.9289 40.5621 21.7644C38.9271 18.2419 37.2863 14.7206 35.6397 11.2005C35.3116 10.6237 35.2102 9.948 35.3548 9.3022C35.5771 8.51411 36.1746 8.18516 36.9319 8.03782C37.2513 7.95824 37.5877 7.97771 37.8955 8.0936C38.2032 8.20949 38.4672 8.41616 38.6515 8.68543C38.8248 8.93077 38.9661 9.19671 39.0718 9.47695C39.9403 11.6471 40.8018 13.8172 41.6564 15.9873C41.778 16.2923 41.9308 16.5287 42.2991 16.5253C42.6673 16.5218 42.8236 16.2717 42.9313 15.9702C43.6817 13.8594 44.4344 11.7499 45.1893 9.64142C45.2654 9.40627 45.3594 9.17718 45.4707 8.95612C45.5628 8.74349 45.6988 8.55214 45.8701 8.39431C46.0414 8.23648 46.2442 8.11565 46.4656 8.03954C46.6869 7.96343 46.922 7.93372 47.1556 7.95231C47.3893 7.97089 47.6164 8.03736 47.8225 8.14747C48.0294 8.21531 48.211 8.34255 48.3441 8.51288C48.4772 8.68321 48.5556 8.88885 48.5694 9.10346C48.6091 9.63109 48.5466 10.1614 48.3853 10.6659C46.609 15.0496 44.8049 19.4195 42.973 23.7757C42.5877 24.6245 42.1089 25.4289 41.5452 26.1743C41.245 26.6299 40.8452 27.0134 40.3751 27.2969C39.9051 27.5803 39.2966 27.6941 38.8287 27.8122C38.775 27.8257 38.579 27.8773 38.318 27.8773C38.0571 27.8773 38.0218 27.8773 37.6754 27.8773Z" fill="#4D4D4D"/>
<path d="M56.0715 9.24897V18.9323C56.0715 19.1653 56.0715 19.3983 56.0715 19.6176C56.0298 20.2755 55.8491 20.8819 55.196 21.1869C54.8548 21.3616 54.474 21.4473 54.0897 21.4359C53.7055 21.4245 53.3305 21.3164 53.0006 21.1218C52.4586 20.8066 52.3301 20.248 52.2676 19.6792C52.2572 19.4875 52.2572 19.2953 52.2676 19.1036V4.17775C52.2676 4.02699 52.2676 3.87965 52.2676 3.72888C52.3266 2.27262 53.4556 1.52221 54.8626 2.01563C55.4602 2.2477 55.9708 2.65567 56.3251 3.18407L64.6624 14.0838C64.7995 14.2824 64.9726 14.4543 65.173 14.5909V14.1352C65.173 10.8183 65.173 7.49917 65.173 4.17775C65.1659 3.91858 65.1833 3.65933 65.2251 3.40336C65.2823 3.08651 65.4194 2.78897 65.6239 2.53821C65.8284 2.28745 66.0937 2.09157 66.3953 1.96864C66.6968 1.84571 67.0249 1.7997 67.3492 1.83486C67.6735 1.87002 67.9836 1.98522 68.2509 2.16982C68.4669 2.32088 68.6445 2.5192 68.7698 2.74925C68.8952 2.9793 68.9649 3.23485 68.9734 3.49588C68.9984 3.76812 69.0076 4.04153 69.0012 4.31481C69.0012 9.19186 69.0012 14.0689 69.0012 18.946C69.0012 19.179 69.0012 19.412 68.9804 19.6313C68.9737 19.9519 68.8816 20.2651 68.7133 20.5394C68.545 20.8138 68.3064 21.0396 68.0216 21.1941C67.7367 21.3487 67.4157 21.4265 67.0906 21.4198C66.7656 21.4132 66.4481 21.3222 66.17 21.1561C65.7344 20.8939 65.3526 20.5533 65.0445 20.1521C62.1751 16.6205 59.3172 13.0798 56.471 9.52995C56.3806 9.41687 56.2834 9.31065 56.1896 9.1873L56.0715 9.24897Z" fill="#B1294A"/>
<path d="M76.0087 15.4852C75.908 17.6062 77.2593 18.8671 79.0761 18.9939C79.9659 19.0305 80.8536 18.8822 81.6815 18.5588C82.0706 18.4183 82.4666 18.2881 82.8627 18.1681C83.0643 18.0908 83.2853 18.0773 83.4951 18.1295C83.7049 18.1817 83.893 18.297 84.0334 18.4594C84.2012 18.6278 84.3095 18.8452 84.3421 19.0791C84.3746 19.3131 84.3297 19.5512 84.214 19.758C84.0122 20.1265 83.7298 20.4461 83.3872 20.6935C82.5532 21.2446 81.5858 21.5674 80.5838 21.6289C79.2672 21.7454 77.9471 21.7865 76.6618 21.3993C74.0599 20.6181 72.6912 18.7849 72.25 16.2219C71.9938 14.8322 72.0723 13.4026 72.4793 12.0484C72.8356 10.7842 73.5967 9.6674 74.6491 8.86465C75.7014 8.06191 76.9887 7.61618 78.3188 7.59394C79.3999 7.52379 80.4845 7.65753 81.5148 7.98799C84.2939 8.94056 85.2631 11.3151 85.0929 13.6794C85.0929 13.8302 85.0616 13.9809 85.0373 14.1283C85.0041 14.4805 84.8405 14.8083 84.5777 15.0491C84.315 15.2899 83.9716 15.4269 83.613 15.4338C83.1857 15.4715 82.755 15.4715 82.3242 15.4715H76.0087V15.4852ZM76.0087 13.9912H80.8721C81.6155 13.9912 81.4627 14.0666 81.5669 13.3847C81.9143 11.2911 80.5074 9.98222 78.3779 10.3557C76.8112 10.623 75.8559 12.0792 76.0087 13.9912Z" fill="#B1294A"/>
<path d="M29.6524 7.84757H30.7432C31.1288 7.84757 31.5179 7.84757 31.907 7.84757C33.1888 7.90582 33.6856 8.63909 33.2965 10.0234C33.1193 10.6573 32.5288 10.8184 31.9382 10.8389C31.2052 10.8663 30.4688 10.8389 29.6906 10.8389C29.6906 11.0239 29.6594 11.1816 29.6594 11.3118V16.3933C29.6594 16.5303 29.6663 16.6674 29.6802 16.8045C29.8122 17.9146 30.5487 18.5177 31.6881 18.3704C32.1807 18.2929 32.6689 18.19 33.1506 18.062C33.7099 17.9318 34.2796 17.8324 34.6687 18.3704C34.8545 18.6214 34.9575 18.9228 34.9638 19.2336C34.97 19.5444 34.8791 19.8495 34.7034 20.1076C34.3885 20.6301 33.8963 21.0259 33.3139 21.2246C31.7988 21.801 30.1352 21.8779 28.572 21.4439C26.7934 20.9539 25.984 19.6176 25.7617 17.9044C25.7066 17.4565 25.6811 17.0055 25.6852 16.5543C25.6852 13.1826 25.6852 9.80867 25.6852 6.43242C25.6791 6.11842 25.7153 5.805 25.7929 5.50041C26.0396 4.62323 26.9185 4.12982 27.9606 4.24632C29.0028 4.36282 29.5968 4.97616 29.642 5.9116C29.6767 6.54208 29.6524 7.16912 29.6524 7.84757Z" fill="#4D4D4D"/>
<path d="M91.7013 10.9005V11.5858C91.7013 13.2271 91.7013 14.865 91.7013 16.5063C91.7013 17.8769 92.5386 18.5827 93.9038 18.36C94.3658 18.2846 94.8174 18.1476 95.2933 18.0482C95.7693 17.9489 96.2764 17.8769 96.6481 18.2983C96.8249 18.5028 96.9409 18.7516 96.9832 19.0171C97.0255 19.2826 96.9925 19.5545 96.8878 19.8026C96.783 20.0947 96.6154 20.3611 96.3966 20.5835C96.1778 20.8058 95.9128 20.9789 95.6199 21.0909C93.9224 21.86 91.9853 21.9352 90.2319 21.3C88.7416 20.7586 88.0711 19.5353 87.8384 18.0551C87.7771 17.6226 87.7469 17.1863 87.7481 16.7496C87.7481 13.2637 87.7481 9.78007 87.7481 6.29874C87.7481 4.81507 88.752 4.00984 90.2354 4.29766C90.6587 4.36064 91.0435 4.5756 91.316 4.90128C91.5884 5.22695 91.7294 5.64041 91.7118 6.06231C91.7291 6.63454 91.7118 7.20676 91.7118 7.84067C91.9306 7.84067 92.1182 7.84067 92.3058 7.84067C93.0006 7.86465 93.6953 7.84066 94.3901 7.9229C95.0849 8.00513 95.4323 8.44373 95.4705 9.16329C95.5226 10.0302 95.2169 10.5579 94.5291 10.7395C94.2604 10.8029 93.9855 10.8374 93.7092 10.8423C93.0978 10.8423 92.4864 10.8423 91.8785 10.8423C91.8179 10.8566 91.7586 10.8761 91.7013 10.9005Z" fill="#B1294A"/>
<path d="M22.3184 14.6834C22.3184 16.2424 22.2941 17.798 22.3184 19.3537C22.3566 21.2245 20.8385 21.6357 19.6401 21.3239C19.2579 21.2282 18.9208 21.0057 18.6855 20.6937C18.4501 20.3816 18.3309 19.9992 18.3478 19.6107C18.3304 16.2904 18.3235 12.9735 18.3478 9.65325C18.3478 8.54992 19.1954 7.85776 20.3661 7.87831C21.5368 7.89887 22.2976 8.59103 22.308 9.7252C22.308 11.3768 22.308 13.0283 22.308 14.6799L22.3184 14.6834Z" fill="#4D4D4D"/>
<path d="M20.4258 1.55988C20.7127 1.59366 20.997 1.64633 21.2769 1.7175C21.6387 1.82564 21.9523 2.05234 22.1658 2.36013C22.3793 2.66791 22.4799 3.03835 22.451 3.41019C22.4337 4.28053 22.0168 4.90758 21.1935 5.05834C20.6128 5.16803 20.0164 5.16803 19.4357 5.05834C18.5638 4.89044 18.1782 4.21542 18.2338 3.22516C18.2355 2.82475 18.3884 2.43934 18.6627 2.14412C18.9369 1.8489 19.3129 1.66504 19.7171 1.62841C19.9221 1.59072 20.1305 1.58386 20.4258 1.55988Z" fill="#4D4D4D"/>
</svg>
